<svg width="10" height="16" viewBox="0 0 10 16" fill="none" xmlns="http://www.w3.org/2000/svg">
    <path d="M3.74659 15.9688C4.03769 15.9688 4.25601 15.8441 4.40156 15.5945L9.89084 6.11306C10.0364 5.86355 10.0364 5.61404 9.89084 5.36452C9.74529 5.11501 9.52697 4.99025 9.23587 4.99025H5.64912L6.70955 0.935673C6.77193 0.706953 6.73034 0.493827 6.5848 0.296296C6.43925 0.0987656 6.24172 0 5.9922 0H1.75049C1.56335 0 1.39701 0.0623782 1.25146 0.187135C1.10591 0.311891 1.02274 0.467836 1.00195 0.654971L0.00389869 8.14035C-0.0168942 8.36907 0.045484 8.5666 0.191033 8.73294C0.336582 8.89929 0.523717 8.98246 0.752437 8.98246H4.46394L3.02924 15.0331C2.96686 15.2827 3.00845 15.501 3.154 15.6881C3.29955 15.8752 3.49708 15.9688 3.74659 15.9688Z" fill="white" fill-opacity="0.9"/>
</svg>
