<svg width="21" height="19" viewBox="0 0 21 19" fill="none" xmlns="http://www.w3.org/2000/svg">
    <path d="M19.2521 10.9742C19.2035 11.193 19.1002 11.3631 18.9422 11.4847C18.7842 11.6062 18.608 11.667 18.4135 11.667H7.73095L7.9497 12.8337H17.7572C18.0246 12.8337 18.2434 12.943 18.4135 13.1618C18.5836 13.3805 18.6444 13.6236 18.5958 13.891L18.377 14.8025C18.7416 14.9726 19.0272 15.2217 19.2338 15.5499C19.4404 15.878 19.5437 16.2365 19.5437 16.6254C19.5437 17.1845 19.3432 17.6645 18.9422 18.0656C18.5411 18.4666 18.0611 18.6671 17.502 18.6671C16.943 18.6671 16.4629 18.4666 16.0619 18.0656C15.6608 17.6645 15.4603 17.1784 15.4603 16.6072C15.4603 16.036 15.6669 15.5559 16.0801 15.167H8.42367C8.83687 15.5559 9.04348 16.036 9.04348 16.6072C9.04348 17.1784 8.84295 17.6645 8.4419 18.0656C8.04085 18.4666 7.5608 18.6671 7.00176 18.6671C6.44272 18.6671 5.96267 18.4666 5.56162 18.0656C5.16057 17.6645 4.96004 17.1845 4.96004 16.6254C4.96004 16.2608 5.05119 15.9205 5.23349 15.6046C5.41578 15.2886 5.66492 15.0334 5.9809 14.8389L3.42876 2.33339H0.876609C0.633547 2.33339 0.426945 2.24832 0.256802 2.07818C0.0866583 1.90803 0.00158691 1.70143 0.00158691 1.45837V0.875022C0.00158691 0.63196 0.0866583 0.425358 0.256802 0.255215C0.426945 0.0850714 0.633547 0 0.876609 0H4.63191C4.82636 0 5.00258 0.0668418 5.16057 0.200526C5.31856 0.33421 5.42186 0.498276 5.47047 0.692726L5.79861 2.33339H20.1271C20.4188 2.33339 20.6497 2.44277 20.8198 2.66152C20.99 2.88028 21.0386 3.12334 20.9656 3.39071L19.2521 10.9742Z" fill="#171717"/>
</svg>
