<svg width="15" height="16" viewBox="0 0 15 16" fill="none" xmlns="http://www.w3.org/2000/svg">
    <path fill-rule="evenodd" clip-rule="evenodd" d="M10.9603 13.7159C10.0108 14.6447 9.02006 15.3155 7.98802 15.7283C7.61648 15.8935 7.24495 15.8935 6.87341 15.7283C5.69688 15.2536 4.61324 14.4899 3.62247 13.4372C2.52851 12.302 1.67191 10.9706 1.05268 9.4432C0.350895 7.73001 0 5.90329 0 3.96305C0 3.65344 0.0825637 3.37478 0.247691 3.12709C0.412817 2.8794 0.639867 2.70395 0.92884 2.60075L6.87341 0.123845C7.24495 -0.0412817 7.61648 -0.0412817 7.98802 0.123845L13.9326 2.60075C14.2216 2.70395 14.4486 2.8794 14.6137 3.12709C14.7789 3.37478 14.8614 3.65344 14.8614 3.96305C14.8614 6.08906 14.4693 8.03962 13.6849 9.81474C13.0038 11.3009 12.0956 12.6013 10.9603 13.7159ZM6.09938 11.8272C6.18194 11.9304 6.29547 11.982 6.43995 11.982C6.58444 11.982 6.69796 11.9304 6.78053 11.8272L12.4774 6.13034C12.5806 6.02714 12.6322 5.90845 12.6322 5.77429C12.6322 5.64012 12.5806 5.52143 12.4774 5.41823L11.7963 4.73708C11.6931 4.63388 11.5744 4.58227 11.4402 4.58227C11.306 4.58227 11.1874 4.63388 11.0842 4.73708L6.43995 9.38128L4.27266 7.21399C4.16946 7.11078 4.05077 7.05918 3.91661 7.05918C3.78244 7.05918 3.66376 7.11078 3.56055 7.21399L2.8794 7.89514C2.7762 7.99834 2.7246 8.11703 2.7246 8.25119C2.7246 8.38536 2.7762 8.50404 2.8794 8.60725L6.09938 11.8272Z" fill="white"/>
</svg>
