<svg width="16" height="16" viewBox="0 0 16 16" fill="none" xmlns="http://www.w3.org/2000/svg">
    <path fill-rule="evenodd" clip-rule="evenodd" d="M8.38079 15.0462C9.71912 15.0462 10.9576 14.7117 12.0961 14.0425C13.2347 13.3733 14.1386 12.4695 14.8078 11.3309C15.4769 10.1923 15.8115 8.95386 15.8115 7.61553C15.8115 6.2772 15.4769 5.03875 14.8078 3.90017C14.1386 2.7616 13.2347 1.85772 12.0961 1.18856C10.9576 0.519397 9.71912 0.184814 8.38079 0.184814C7.04246 0.184814 5.80401 0.519397 4.66543 1.18856C3.52685 1.85772 2.62298 2.7616 1.95382 3.90017C1.28466 5.03875 0.950073 6.2772 0.950073 7.61553C0.950073 8.95386 1.28466 10.1923 1.95382 11.3309C2.62298 12.4695 3.52685 13.3733 4.66543 14.0425C5.80401 14.7117 7.04246 15.0462 8.38079 15.0462ZM9.21974 9.29343H7.54184C7.44196 9.29343 7.35707 9.25848 7.28716 9.18856C7.21724 9.11865 7.18229 9.03376 7.18229 8.93388V8.81403C7.18229 8.29468 7.36206 7.84524 7.72161 7.46572C7.92136 7.24599 8.27093 6.9963 8.7703 6.71665L8.83023 6.68669C9.1698 6.48694 9.39952 6.33713 9.51937 6.23725C9.69914 6.07745 9.78903 5.88769 9.78903 5.66796C9.78903 5.38831 9.64421 5.15361 9.35457 4.96384C9.06493 4.77408 8.75033 4.6792 8.41075 4.6792C8.0512 4.6792 7.7316 4.77907 7.45195 4.97882C7.27217 5.11865 7.02249 5.37833 6.70289 5.75785C6.64296 5.83775 6.56306 5.8827 6.46319 5.89268C6.36331 5.90267 6.28341 5.8777 6.22348 5.81778L5.17479 5.03875C5.09489 4.97882 5.04496 4.90392 5.02498 4.81403C5.00501 4.72414 5.02498 4.63925 5.08491 4.55935C5.50438 3.92015 5.98378 3.45073 6.52311 3.15111C7.10239 2.81153 7.79153 2.64174 8.59053 2.64174C9.14983 2.64174 9.69914 2.77658 10.2385 3.04624C10.7778 3.3159 11.2172 3.68544 11.5568 4.15485C11.8964 4.62427 12.0662 5.13863 12.0662 5.69793C12.0662 6.33713 11.8764 6.86647 11.4969 7.28594C11.2772 7.52564 10.9076 7.80529 10.3883 8.12489C10.1086 8.28469 9.91887 8.40454 9.81899 8.48444C9.65919 8.60429 9.57929 8.74412 9.57929 8.90392V8.93388C9.57929 9.03376 9.54434 9.11865 9.47442 9.18856C9.40451 9.25848 9.31962 9.29343 9.21974 9.29343ZM7.40701 12.4245C7.67667 12.6942 8.00126 12.829 8.38079 12.829C8.76031 12.829 9.08491 12.6942 9.35457 12.4245C9.62424 12.1549 9.75907 11.8303 9.75907 11.4507C9.75907 11.0712 9.62424 10.7466 9.35457 10.477C9.08491 10.2073 8.76031 10.0725 8.38079 10.0725C8.00126 10.0725 7.67667 10.2073 7.40701 10.477C7.13734 10.7466 7.00251 11.0712 7.00251 11.4507C7.00251 11.8303 7.13734 12.1549 7.40701 12.4245Z" fill="white"/>
</svg>
