<svg width="117" height="41" viewBox="0 0 117 41" fill="none" xmlns="http://www.w3.org/2000/svg">
    <path d="M15.3549 36.0268C15.3852 38.7246 17.5891 40.8891 20.2822 40.866H110.808C113.501 40.8891 115.704 38.7242 115.733 36.0268V21.6036C115.704 18.9062 113.501 16.7413 110.808 16.7644H100.847V5.78623C100.847 3.1477 98.646 1 95.9385 1H4.90895C2.20374 1 0 3.1477 0 5.78623V19.5527C0 22.1912 2.20374 24.3366 4.90895 24.3366H15.371L15.3549 36.0268Z" fill="white"/>
    <path d="M15.8549 35.5268C15.8852 38.2246 18.0891 40.3891 20.7822 40.366H111.308C114.001 40.3891 116.204 38.2242 116.233 35.5268V21.1036C116.204 18.4062 114.001 16.2413 111.308 16.2644H101.347V5.28623C101.347 2.6477 99.146 0.5 96.4385 0.5H5.40895C2.70374 0.5 0.5 2.6477 0.5 5.28623V19.0527C0.5 21.6912 2.70374 23.8366 5.40895 23.8366H15.871L15.8549 35.5268Z" fill="white"/>
    <path fill-rule="evenodd" clip-rule="evenodd" d="M106.622 13.0423C106.64 11.9041 105.739 10.964 104.604 10.9361C104.044 10.9159 103.501 11.1262 103.101 11.5179C102.7 11.9096 102.477 12.4486 102.484 13.0094C102.484 14.1477 103.401 15.0729 104.537 15.0819C105.673 15.091 106.603 14.1805 106.622 13.0423ZM106.147 13.6617C105.876 14.2673 105.265 14.6473 104.604 14.6219V14.6288C104.178 14.6279 103.771 14.4535 103.477 14.1459C103.183 13.8382 103.026 13.4238 103.043 12.9979C103.042 12.3343 103.444 11.737 104.058 11.4886C104.672 11.2403 105.375 11.3906 105.835 11.8686C106.294 12.3465 106.418 13.0561 106.147 13.6617ZM103.781 11.8299H104.652C105.231 11.8299 105.558 12.0142 105.558 12.521C105.57 12.6868 105.51 12.8497 105.394 12.9683C105.278 13.0869 105.116 13.1497 104.951 13.1407L105.571 14.1542H105.089L104.525 13.1637H104.238V14.1542H103.778L103.781 11.8299ZM104.652 12.7974H104.24L104.238 12.1893H104.636C104.845 12.1893 105.112 12.2285 105.112 12.4772C105.112 12.7606 104.912 12.7974 104.652 12.7974Z" fill="white"/>
    <path d="M84.054 27.9248H81.7935V30.7342H84.054C85.3066 30.7342 85.2639 30.2918 85.2639 29.1129C85.2639 28.1865 85.0148 27.9248 84.054 27.9248Z" fill="#AC1E2D"/>
    <path fill-rule="evenodd" clip-rule="evenodd" d="M99.883 17.3564H111.255C113.314 17.3334 115.003 18.9821 115.032 21.0429V35.4755C115.004 37.5368 113.314 39.1863 111.255 39.1619H20.6974C18.6377 39.1875 16.9467 37.5377 16.9189 35.4755V22.3723H96.3438C98.5162 22.3608 99.883 20.5176 99.883 19.1121V17.3564ZM67.9152 32.1807C67.9152 33.3097 67.8991 34.328 66.8382 35.1137C65.8123 35.8735 64.5669 35.8727 63.258 35.8718L63.1241 35.8717C59.9393 35.8717 57.6151 35.7335 57.6151 31.9549V29.2937C57.6151 25.8768 59.6862 25.3768 63.1241 25.3768C66.3458 25.3768 67.8369 25.6671 67.8991 28.7638V29.1647H64.6774V28.7638C64.567 27.8422 63.8329 27.773 62.7743 27.773C60.9932 27.773 60.8229 28.2546 60.8229 29.7292V31.342C60.8229 32.8857 60.8989 33.4778 62.7743 33.4778C64.0676 33.4778 64.6935 33.3949 64.6935 32.183V31.8719H67.9152V32.1807ZM36.8746 35.7888H28.4201V25.4644H36.7665V27.7246H31.506V29.6117H36.4443V31.5263H31.506V33.5378H36.8746V35.7888ZM46.482 35.7888H38.5039V25.4644H41.6128V33.3972H46.482V35.7888ZM47.9318 35.7888H56.3771V33.5378H51.0177V31.5263H55.956V29.6117H51.0177V27.7246H56.2781V25.4644H47.9318V35.7888ZM74.5379 27.856H77.6192L77.6284 25.4644H68.5411V27.8606H71.4797V35.7888H74.5379V27.856ZM88.2276 33.7083V35.7819H85.2361V34.335C85.266 33.5631 84.907 33.0401 84.0119 33.0401H81.7061V35.7888H78.7146V25.4644H84.4813C87.0655 25.5058 88.3358 26.015 88.3358 28.591C88.3358 30.3121 88.3358 31.3167 86.2141 31.7705V31.8719C87.4429 31.9226 88.2368 32.5424 88.2368 33.7152L88.2276 33.7083ZM90.0409 35.7819H93.2396L93.2488 25.4644H90.0409V35.7819ZM104.897 32.1738C104.897 33.3027 104.881 34.3211 103.853 35.1068C102.858 35.8666 101.648 35.8658 100.379 35.8649L100.249 35.8648C97.1585 35.8648 94.9033 35.7266 94.9033 31.948V29.2937C94.9033 25.8768 96.9168 25.3768 100.249 25.3768C103.367 25.3768 104.821 25.6671 104.881 28.7638V29.1647H101.772V28.7638C101.666 27.8422 100.953 27.773 99.9314 27.773C98.2055 27.773 98.0375 28.2546 98.0375 29.7292V31.342C98.0375 32.8857 98.1134 33.4778 99.9314 33.4778C101.188 33.4778 101.793 33.3949 101.793 32.183V31.8719H104.913L104.897 32.1738Z" fill="#AC1E2D"/>
    <path d="M60.8348 8.39307C58.8661 8.39307 58.2222 8.60084 58.1663 10.6809V13.8437C58.2222 15.9422 58.8661 16.1523 60.8348 16.1523C62.8036 16.1523 63.5057 15.9445 63.5057 13.8437V10.6763C63.5057 8.59622 62.8059 8.39307 60.8348 8.39307Z" fill="#231F20"/>
    <path fill-rule="evenodd" clip-rule="evenodd" d="M96.4472 1.7041C98.522 1.7041 100.21 3.33302 100.21 5.33235L100.215 19.0815C100.215 21.0808 98.5244 22.7074 96.4518 22.7074H5.33062C3.25581 22.7074 1.56787 21.0808 1.56787 19.0815V5.33235C1.56787 3.33302 3.25812 1.7041 5.33062 1.7041H96.4472ZM51.665 18.435C52.9361 17.3698 52.9545 15.987 52.9545 14.457L52.9591 14.0383H49.1066V14.4478C49.1066 16.0906 48.3536 16.2033 46.8038 16.2033C44.5586 16.2033 44.4665 15.4003 44.4665 13.3067V11.1233C44.4665 9.12625 44.6714 8.47054 46.8038 8.47054C48.0749 8.47054 48.9523 8.56487 49.0835 9.81647V10.3663H52.9361V9.82337C52.8601 5.61304 51.0662 5.22191 47.2137 5.22191C43.1009 5.22191 40.6139 5.89373 40.6139 10.5274V14.1694C40.6139 19.2748 43.4003 19.4611 47.2137 19.4611L47.3805 19.4612C48.9456 19.4625 50.4374 19.4637 51.665 18.435ZM7.31102 19.3438H16.9021V16.0929H11.06V5.33465H7.31102V19.3438ZM18.6269 19.3438H22.3666V5.33465H18.6269V19.3438ZM38.5161 19.3438H32.142L28.1789 8.58328H28.0292L28.2595 19.3438H24.5128V5.33465H30.8317L34.8523 16.0929H35.0089L34.7786 5.33465H38.5184L38.5161 19.3438ZM67.3124 14.3259C67.3124 18.6398 64.6204 19.4611 60.8231 19.4611C57.0258 19.4611 54.3362 18.6398 54.3362 14.3259V10.3594C54.3362 6.04327 57.0282 5.22191 60.8231 5.22191C64.6181 5.22191 67.3124 6.04327 67.3124 10.3594V14.3259ZM68.8599 19.3507H78.596L78.6006 16.0929H72.6595V5.33465H68.8599V19.3507ZM94.1537 19.3507H87.7819L83.828 8.58328H83.6783L83.9086 19.3438H80.155V5.33465H86.4739L90.5061 16.0929H90.6534L90.4231 5.33465H94.1629L94.1537 19.3507Z" fill="#231F20"/>
    <path fill-rule="evenodd" clip-rule="evenodd" d="M106.122 13.5423C106.14 12.4041 105.239 11.464 104.104 11.4361C103.544 11.4159 103.001 11.6262 102.601 12.0179C102.2 12.4096 101.977 12.9486 101.984 13.5094C101.984 14.6477 102.901 15.5729 104.037 15.5819C105.173 15.591 106.103 14.6805 106.122 13.5423ZM105.647 14.1617C105.376 14.7673 104.765 15.1473 104.104 15.1219V15.1288C103.678 15.1279 103.271 14.9535 102.977 14.6459C102.683 14.3382 102.526 13.9238 102.543 13.4979C102.542 12.8343 102.944 12.237 103.558 11.9886C104.172 11.7403 104.875 11.8906 105.335 12.3686C105.794 12.8465 105.918 13.5561 105.647 14.1617ZM103.281 12.3299H104.152C104.731 12.3299 105.058 12.5142 105.058 13.021C105.07 13.1868 105.01 13.3497 104.894 13.4683C104.778 13.5869 104.616 13.6497 104.451 13.6407L105.071 14.6542H104.589L104.025 13.6637H103.738V14.6542H103.278L103.281 12.3299ZM104.152 13.2974H103.74L103.738 12.6893H104.136C104.345 12.6893 104.612 12.7285 104.612 12.9772C104.612 13.2606 104.412 13.2974 104.152 13.2974Z" fill="#171717"/>
    <path d="M83.554 28.4248H81.2935V31.2342H83.554C84.8066 31.2342 84.7639 30.7918 84.7639 29.6129C84.7639 28.6865 84.5148 28.4248 83.554 28.4248Z" fill="#AC1E2D"/>
    <path fill-rule="evenodd" clip-rule="evenodd" d="M99.383 17.8564H110.755C112.814 17.8334 114.503 19.4821 114.532 21.5429V35.9755C114.504 38.0368 112.814 39.6863 110.755 39.6619H20.1974C18.1377 39.6875 16.4467 38.0377 16.4189 35.9755V22.8723H95.8438C98.0162 22.8608 99.383 21.0176 99.383 19.6121V17.8564ZM67.4152 32.6807C67.4152 33.8097 67.3991 34.828 66.3382 35.6137C65.3123 36.3735 64.0669 36.3727 62.758 36.3718L62.6241 36.3717C59.4393 36.3717 57.1151 36.2335 57.1151 32.4549V29.7937C57.1151 26.3768 59.1862 25.8768 62.6241 25.8768C65.8458 25.8768 67.3369 26.1671 67.3991 29.2638V29.6647H64.1774V29.2638C64.067 28.3422 63.3329 28.273 62.2743 28.273C60.4932 28.273 60.3229 28.7546 60.3229 30.2292V31.842C60.3229 33.3857 60.3989 33.9778 62.2743 33.9778C63.5676 33.9778 64.1935 33.8949 64.1935 32.683V32.3719H67.4152V32.6807ZM36.3746 36.2888H27.9201V25.9644H36.2665V28.2246H31.006V30.1117H35.9443V32.0263H31.006V34.0378H36.3746V36.2888ZM45.982 36.2888H38.0039V25.9644H41.1128V33.8972H45.982V36.2888ZM47.4318 36.2888H55.8771V34.0378H50.5177V32.0263H55.456V30.1117H50.5177V28.2246H55.7781V25.9644H47.4318V36.2888ZM74.0379 28.356H77.1192L77.1284 25.9644H68.0411V28.3606H70.9797V36.2888H74.0379V28.356ZM87.7276 34.2083V36.2819H84.7361V34.835C84.766 34.0631 84.407 33.5401 83.5119 33.5401H81.2061V36.2888H78.2146V25.9644H83.9813C86.5655 26.0058 87.8358 26.515 87.8358 29.091C87.8358 30.8121 87.8358 31.8167 85.7141 32.2705V32.3719C86.9429 32.4226 87.7368 33.0424 87.7368 34.2152L87.7276 34.2083ZM89.5409 36.2819H92.7396L92.7488 25.9644H89.5409V36.2819ZM104.397 32.6738C104.397 33.8027 104.381 34.8211 103.353 35.6068C102.358 36.3666 101.148 36.3658 99.8788 36.3649L99.7489 36.3648C96.6585 36.3648 94.4033 36.2266 94.4033 32.448V29.7937C94.4033 26.3768 96.4168 25.8768 99.7489 25.8768C102.867 25.8768 104.321 26.1671 104.381 29.2638V29.6647H101.272V29.2638C101.166 28.3422 100.453 28.273 99.4314 28.273C97.7055 28.273 97.5375 28.7546 97.5375 30.2292V31.842C97.5375 33.3857 97.6134 33.9778 99.4314 33.9778C100.688 33.9778 101.293 33.8949 101.293 32.683V32.3719H104.413L104.397 32.6738Z" fill="#AC1E2D"/>
    <path d="M60.3348 8.89307C58.3661 8.89307 57.7222 9.10084 57.6663 11.1809V14.3437C57.7222 16.4422 58.3661 16.6523 60.3348 16.6523C62.3036 16.6523 63.0057 16.4445 63.0057 14.3437V11.1763C63.0057 9.09622 62.3059 8.89307 60.3348 8.89307Z" fill="#231F20"/>
    <path fill-rule="evenodd" clip-rule="evenodd" d="M95.9472 2.2041C98.022 2.2041 99.71 3.83302 99.71 5.83235L99.7146 19.5815C99.7146 21.5808 98.0244 23.2074 95.9518 23.2074H4.83062C2.75581 23.2074 1.06787 21.5808 1.06787 19.5815V5.83235C1.06787 3.83302 2.75812 2.2041 4.83062 2.2041H95.9472ZM51.165 18.935C52.4361 17.8698 52.4545 16.487 52.4545 14.957L52.4591 14.5383H48.6066V14.9478C48.6066 16.5906 47.8536 16.7033 46.3038 16.7033C44.0586 16.7033 43.9665 15.9003 43.9665 13.8067V11.6233C43.9665 9.62625 44.1714 8.97054 46.3038 8.97054C47.5749 8.97054 48.4523 9.06487 48.5835 10.3165V10.8663H52.4361V10.3234C52.3601 6.11304 50.5662 5.72191 46.7137 5.72191C42.6009 5.72191 40.1139 6.39373 40.1139 11.0274V14.6694C40.1139 19.7748 42.9003 19.9611 46.7137 19.9611L46.8805 19.9612C48.4456 19.9625 49.9374 19.9637 51.165 18.935ZM6.81102 19.8438H16.4021V16.5929H10.56V5.83465H6.81102V19.8438ZM18.1269 19.8438H21.8666V5.83465H18.1269V19.8438ZM38.0161 19.8438H31.642L27.6789 9.08328H27.5292L27.7595 19.8438H24.0128V5.83465H30.3317L34.3523 16.5929H34.5089L34.2786 5.83465H38.0184L38.0161 19.8438ZM66.8124 14.8259C66.8124 19.1398 64.1204 19.9611 60.3231 19.9611C56.5258 19.9611 53.8362 19.1398 53.8362 14.8259V10.8594C53.8362 6.54327 56.5282 5.72191 60.3231 5.72191C64.1181 5.72191 66.8124 6.54327 66.8124 10.8594V14.8259ZM68.3599 19.8507H78.096L78.1006 16.5929H72.1595V5.83465H68.3599V19.8507ZM93.6537 19.8507H87.2819L83.328 9.08328H83.1783L83.4086 19.8438H79.655V5.83465H85.9739L90.0061 16.5929H90.1534L89.9231 5.83465H93.6629L93.6537 19.8507Z" fill="#231F20"/>
</svg>