<svg width="16" height="13" viewBox="0 0 16 13" fill="none" xmlns="http://www.w3.org/2000/svg">
    <path fill-rule="evenodd" clip-rule="evenodd" d="M2.85938 2.85938C2.76562 2.95312 2.64583 3 2.5 3H0.5C0.354167 3 0.234375 2.95312 0.140625 2.85938C0.046875 2.76562 0 2.64583 0 2.5V0.5C0 0.354167 0.046875 0.234375 0.140625 0.140625C0.234375 0.046875 0.354167 0 0.5 0H2.5C2.64583 0 2.76562 0.046875 2.85938 0.140625C2.95312 0.234375 3 0.354167 3 0.5V2.5C3 2.64583 2.95312 2.76562 2.85938 2.85938ZM15.8594 2.48438C15.7656 2.57812 15.6458 2.625 15.5 2.625H4.5C4.35417 2.625 4.23438 2.57812 4.14062 2.48438C4.04688 2.39062 4 2.27083 4 2.125V0.875C4 0.729167 4.04688 0.609375 4.14062 0.515625C4.23438 0.421875 4.35417 0.375 4.5 0.375H15.5C15.6458 0.375 15.7656 0.421875 15.8594 0.515625C15.9531 0.609375 16 0.729167 16 0.875V2.125C16 2.27083 15.9531 2.39062 15.8594 2.48438ZM2.5 8C2.64583 8 2.76562 7.95312 2.85938 7.85938C2.95312 7.76562 3 7.64583 3 7.5V5.5C3 5.35417 2.95312 5.23438 2.85938 5.14062C2.76562 5.04688 2.64583 5 2.5 5H0.5C0.354167 5 0.234375 5.04688 0.140625 5.14062C0.046875 5.23438 0 5.35417 0 5.5V7.5C0 7.64583 0.046875 7.76562 0.140625 7.85938C0.234375 7.95312 0.354167 8 0.5 8H2.5ZM15.8594 7.48438C15.7656 7.57812 15.6458 7.625 15.5 7.625H4.5C4.35417 7.625 4.23438 7.57812 4.14062 7.48438C4.04688 7.39062 4 7.27083 4 7.125V5.875C4 5.72917 4.04688 5.60938 4.14062 5.51562C4.23438 5.42188 4.35417 5.375 4.5 5.375H15.5C15.6458 5.375 15.7656 5.42188 15.8594 5.51562C15.9531 5.60938 16 5.72917 16 5.875V7.125C16 7.27083 15.9531 7.39062 15.8594 7.48438ZM2.5 13C2.64583 13 2.76562 12.9531 2.85938 12.8594C2.95312 12.7656 3 12.6458 3 12.5V10.5C3 10.3542 2.95312 10.2344 2.85938 10.1406C2.76562 10.0469 2.64583 10 2.5 10H0.5C0.354167 10 0.234375 10.0469 0.140625 10.1406C0.046875 10.2344 0 10.3542 0 10.5V12.5C0 12.6458 0.046875 12.7656 0.140625 12.8594C0.234375 12.9531 0.354167 13 0.5 13H2.5ZM15.8594 12.4844C15.7656 12.5781 15.6458 12.625 15.5 12.625H4.5C4.35417 12.625 4.23438 12.5781 4.14062 12.4844C4.04688 12.3906 4 12.2708 4 12.125V10.875C4 10.7292 4.04688 10.6094 4.14062 10.5156C4.23438 10.4219 4.35417 10.375 4.5 10.375H15.5C15.6458 10.375 15.7656 10.4219 15.8594 10.5156C15.9531 10.6094 16 10.7292 16 10.875V12.125C16 12.2708 15.9531 12.3906 15.8594 12.4844Z" fill="white" fill-opacity="0.9"/>
</svg>
