<svg width="21" height="15" viewBox="0 0 21 15" fill="none" xmlns="http://www.w3.org/2000/svg">
  <path fill-rule="evenodd" clip-rule="evenodd" d="M0.738072 2.81809C0.5228 2.81809 0.345971 2.75938 0.207583 2.64196C0.0691942 2.52454 0 2.3745 0 2.19185V0.626243C0 0.443588 0.0691942 0.293551 0.207583 0.176131C0.345971 0.0587102 0.5228 0 0.738072 0H19.9279C20.1432 0 20.32 0.0587102 20.4584 0.176131C20.5968 0.293551 20.666 0.443588 20.666 0.626243V2.19185C20.666 2.3745 20.5968 2.52454 20.4584 2.64196C20.32 2.75938 20.1432 2.81809 19.9279 2.81809H0.738072ZM0.738072 8.90905C0.5228 8.90905 0.345971 8.85034 0.207583 8.73291C0.0691942 8.61549 0 8.46546 0 8.2828V6.7172C0 6.53454 0.0691942 6.38451 0.207583 6.26709C0.345971 6.14966 0.5228 6.09095 0.738072 6.09095H19.9279C20.1432 6.09095 20.32 6.14966 20.4584 6.26709C20.5968 6.38451 20.666 6.53454 20.666 6.7172V8.2828C20.666 8.46546 20.5968 8.61549 20.4584 8.73291C20.32 8.85034 20.1432 8.90905 19.9279 8.90905H0.738072ZM0.207583 14.8239C0.345971 14.9413 0.5228 15 0.738072 15H19.9279C20.1432 15 20.32 14.9413 20.4584 14.8239C20.5968 14.7064 20.666 14.5564 20.666 14.3738V12.8082C20.666 12.6255 20.5968 12.4755 20.4584 12.358C20.32 12.2406 20.1432 12.1819 19.9279 12.1819H0.738072C0.5228 12.1819 0.345971 12.2406 0.207583 12.358C0.0691942 12.4755 0 12.6255 0 12.8082V14.3738C0 14.5564 0.0691942 14.7064 0.207583 14.8239Z" fill="#333333"/>
</svg>