<svg width="14" height="15" viewBox="0 0 14 15" fill="none" xmlns="http://www.w3.org/2000/svg">
    <path d="M6.82407 14.3149C7.32166 14.3149 7.77038 14.1727 8.17023 13.8884C8.57008 13.6041 8.84997 13.2397 9.00991 12.7955C9.45419 12.991 9.91623 13.0487 10.3961 12.9687C10.8759 12.8888 11.2935 12.6711 11.6489 12.3157C12.0043 11.9602 12.222 11.5426 12.302 11.0628C12.382 10.583 12.3242 10.1209 12.1287 9.67666C12.573 9.51672 12.9373 9.23682 13.2216 8.83698C13.506 8.43713 13.6481 7.98841 13.6481 7.49082C13.6481 6.99323 13.506 6.54451 13.2216 6.14467C12.9373 5.74482 12.573 5.46493 12.1287 5.30499C12.3242 4.86071 12.382 4.39866 12.302 3.91885C12.222 3.43903 12.0043 3.02141 11.6489 2.66599C11.2935 2.31057 10.8759 2.09287 10.3961 2.0129C9.91623 1.93293 9.45419 1.99069 9.00991 2.18617C8.84997 1.74189 8.57008 1.37759 8.17023 1.09325C7.77038 0.808916 7.32166 0.666748 6.82407 0.666748C6.32649 0.666748 5.87777 0.808916 5.47792 1.09325C5.07807 1.37759 4.79818 1.74189 4.63824 2.18617C4.19396 1.99069 3.73192 1.93293 3.2521 2.0129C2.77228 2.09287 2.35466 2.31057 1.99924 2.66599C1.64382 3.02141 1.42612 3.43903 1.34616 3.91885C1.26619 4.39866 1.32394 4.86071 1.51942 5.30499C1.07515 5.46493 0.710841 5.74482 0.426505 6.14467C0.142168 6.54451 0 6.99323 0 7.49082C0 7.98841 0.142168 8.43713 0.426505 8.83698C0.710841 9.23682 1.07515 9.51672 1.51942 9.67666C1.32394 10.1209 1.26619 10.583 1.34616 11.0628C1.42612 11.5426 1.64382 11.9602 1.99924 12.3157C2.35466 12.6711 2.77228 12.8888 3.2521 12.9687C3.73192 13.0487 4.19396 12.991 4.63824 12.7955C4.79818 13.2397 5.07807 13.6041 5.47792 13.8884C5.87777 14.1727 6.32649 14.3149 6.82407 14.3149Z" fill="#095B1F"/>
</svg>
