<svg width="18" height="18" viewBox="0 0 18 18" fill="none" xmlns="http://www.w3.org/2000/svg">
    <path fill-rule="evenodd" clip-rule="evenodd" d="M18 16.1718C18 15.9375 17.9179 15.7382 17.7539 15.5742L14.2382 12.0586C14.0742 11.8945 13.875 11.8125 13.6406 11.8125H13.0781C14.1093 10.5 14.625 8.99998 14.625 7.31248C14.625 5.97655 14.2968 4.75194 13.6406 3.63866C12.9843 2.52538 12.0996 1.64062 10.9863 0.984373C9.87302 0.328124 8.64842 0 7.31248 0C5.97655 0 4.75194 0.328124 3.63866 0.984373C2.52538 1.64062 1.64062 2.52538 0.984373 3.63866C0.328124 4.75194 0 5.97655 0 7.31248C0 8.64842 0.328124 9.87302 0.984373 10.9863C1.64062 12.0996 2.52538 12.9843 3.63866 13.6406C4.75194 14.2968 5.97655 14.625 7.31248 14.625C8.99998 14.625 10.5 14.1093 11.8125 13.0781V13.6406C11.8125 13.875 11.8945 14.0742 12.0586 14.2382L15.5742 17.7539C15.7382 17.9179 15.9375 18 16.1718 18C16.4062 18 16.6054 17.9179 16.7695 17.7539L17.7539 16.7695C17.9179 16.6054 18 16.4062 18 16.1718ZM9.58005 11.2148C8.88865 11.6133 8.13279 11.8125 7.31248 11.8125C6.49217 11.8125 5.73631 11.6133 5.04491 11.2148C4.3535 10.8164 3.80858 10.2715 3.41015 9.58005C3.01171 8.88865 2.81249 8.13279 2.81249 7.31248C2.81249 6.49217 3.01171 5.73631 3.41015 5.04491C3.80858 4.3535 4.3535 3.80858 5.04491 3.41015C5.73631 3.01171 6.49217 2.81249 7.31248 2.81249C8.13279 2.81249 8.88865 3.01171 9.58005 3.41015C10.2715 3.80858 10.8164 4.3535 11.2148 5.04491C11.6133 5.73631 11.8125 6.49217 11.8125 7.31248C11.8125 8.13279 11.6133 8.88865 11.2148 9.58005C10.8164 10.2715 10.2715 10.8164 9.58005 11.2148Z" fill="#171717"/>
</svg>
