<svg width="22" height="15" viewBox="0 0 22 15" fill="none" xmlns="http://www.w3.org/2000/svg">
    <rect width="22" height="14.6667" fill="white"/>
    <path fill-rule="evenodd" clip-rule="evenodd" d="M22 0H0V0.977778H22V0ZM22 1.95556H0V2.93333H22V1.95556ZM0 3.91111H22V4.88889H0V3.91111ZM22 5.86667H0V6.84444H22V5.86667ZM0 7.82222H22V8.8H0V7.82222ZM22 9.77778H0V10.7556H22V9.77778ZM0 11.7333H22V12.7111H0V11.7333ZM22 13.6889H0V14.6667H22V13.6889Z" fill="#D02F44"/>
    <rect width="8.8" height="6.84444" fill="#46467F"/>
    <g filter="url(#filter0_d_138_39)">
        <path fill-rule="evenodd" clip-rule="evenodd" d="M1.46667 1.95556C1.73668 1.95556 1.95556 1.73668 1.95556 1.46667C1.95556 1.19667 1.73668 0.977783 1.46667 0.977783C1.19667 0.977783 0.977783 1.19667 0.977783 1.46667C0.977783 1.73668 1.19667 1.95556 1.46667 1.95556ZM3.42223 1.95556C3.69223 1.95556 3.91112 1.73668 3.91112 1.46667C3.91112 1.19667 3.69223 0.977783 3.42223 0.977783C3.15222 0.977783 2.93334 1.19667 2.93334 1.46667C2.93334 1.73668 3.15222 1.95556 3.42223 1.95556ZM5.86667 1.46667C5.86667 1.73668 5.64779 1.95556 5.37778 1.95556C5.10778 1.95556 4.88889 1.73668 4.88889 1.46667C4.88889 1.19667 5.10778 0.977783 5.37778 0.977783C5.64779 0.977783 5.86667 1.19667 5.86667 1.46667ZM7.33334 1.95556C7.60334 1.95556 7.82223 1.73668 7.82223 1.46667C7.82223 1.19667 7.60334 0.977783 7.33334 0.977783C7.06333 0.977783 6.84445 1.19667 6.84445 1.46667C6.84445 1.73668 7.06333 1.95556 7.33334 1.95556ZM2.93334 2.44445C2.93334 2.71446 2.71446 2.93334 2.44445 2.93334C2.17444 2.93334 1.95556 2.71446 1.95556 2.44445C1.95556 2.17444 2.17444 1.95556 2.44445 1.95556C2.71446 1.95556 2.93334 2.17444 2.93334 2.44445ZM4.40001 2.93334C4.67001 2.93334 4.88889 2.71446 4.88889 2.44445C4.88889 2.17444 4.67001 1.95556 4.40001 1.95556C4.13 1.95556 3.91112 2.17444 3.91112 2.44445C3.91112 2.71446 4.13 2.93334 4.40001 2.93334ZM6.84445 2.44445C6.84445 2.71446 6.62557 2.93334 6.35556 2.93334C6.08556 2.93334 5.86667 2.71446 5.86667 2.44445C5.86667 2.17444 6.08556 1.95556 6.35556 1.95556C6.62557 1.95556 6.84445 2.17444 6.84445 2.44445ZM7.33334 3.91112C7.60334 3.91112 7.82223 3.69223 7.82223 3.42223C7.82223 3.15222 7.60334 2.93334 7.33334 2.93334C7.06333 2.93334 6.84445 3.15222 6.84445 3.42223C6.84445 3.69223 7.06333 3.91112 7.33334 3.91112ZM5.86667 3.42223C5.86667 3.69223 5.64779 3.91112 5.37778 3.91112C5.10778 3.91112 4.88889 3.69223 4.88889 3.42223C4.88889 3.15222 5.10778 2.93334 5.37778 2.93334C5.64779 2.93334 5.86667 3.15222 5.86667 3.42223ZM3.42223 3.91112C3.69223 3.91112 3.91112 3.69223 3.91112 3.42223C3.91112 3.15222 3.69223 2.93334 3.42223 2.93334C3.15222 2.93334 2.93334 3.15222 2.93334 3.42223C2.93334 3.69223 3.15222 3.91112 3.42223 3.91112ZM1.95556 3.42223C1.95556 3.69223 1.73668 3.91112 1.46667 3.91112C1.19667 3.91112 0.977783 3.69223 0.977783 3.42223C0.977783 3.15222 1.19667 2.93334 1.46667 2.93334C1.73668 2.93334 1.95556 3.15222 1.95556 3.42223ZM2.44445 4.88889C2.71446 4.88889 2.93334 4.67001 2.93334 4.40001C2.93334 4.13 2.71446 3.91112 2.44445 3.91112C2.17444 3.91112 1.95556 4.13 1.95556 4.40001C1.95556 4.67001 2.17444 4.88889 2.44445 4.88889ZM4.88889 4.40001C4.88889 4.67001 4.67001 4.88889 4.40001 4.88889C4.13 4.88889 3.91112 4.67001 3.91112 4.40001C3.91112 4.13 4.13 3.91112 4.40001 3.91112C4.67001 3.91112 4.88889 4.13 4.88889 4.40001ZM6.35556 4.88889C6.62557 4.88889 6.84445 4.67001 6.84445 4.40001C6.84445 4.13 6.62557 3.91112 6.35556 3.91112C6.08556 3.91112 5.86667 4.13 5.86667 4.40001C5.86667 4.67001 6.08556 4.88889 6.35556 4.88889ZM7.82223 5.37778C7.82223 5.64779 7.60334 5.86667 7.33334 5.86667C7.06333 5.86667 6.84445 5.64779 6.84445 5.37778C6.84445 5.10778 7.06333 4.88889 7.33334 4.88889C7.60334 4.88889 7.82223 5.10778 7.82223 5.37778ZM5.37778 5.86667C5.64779 5.86667 5.86667 5.64779 5.86667 5.37778C5.86667 5.10778 5.64779 4.88889 5.37778 4.88889C5.10778 4.88889 4.88889 5.10778 4.88889 5.37778C4.88889 5.64779 5.10778 5.86667 5.37778 5.86667ZM3.91112 5.37778C3.91112 5.64779 3.69223 5.86667 3.42223 5.86667C3.15222 5.86667 2.93334 5.64779 2.93334 5.37778C2.93334 5.10778 3.15222 4.88889 3.42223 4.88889C3.69223 4.88889 3.91112 5.10778 3.91112 5.37778ZM1.46667 5.86667C1.73668 5.86667 1.95556 5.64779 1.95556 5.37778C1.95556 5.10778 1.73668 4.88889 1.46667 4.88889C1.19667 4.88889 0.977783 5.10778 0.977783 5.37778C0.977783 5.64779 1.19667 5.86667 1.46667 5.86667Z" fill="url(#paint0_linear_138_39)"/>
    </g>
    <defs>
        <filter id="filter0_d_138_39" x="0.977783" y="0.977783" width="6.84442" height="5.88892" filterUnits="userSpaceOnUse" color-interpolation-filters="sRGB">
            <feFlood flood-opacity="0" result="BackgroundImageFix"/>
            <feColorMatrix in="SourceAlpha" type="matrix" values="0 0 0 0 0 0 0 0 0 0 0 0 0 0 0 0 0 0 127 0" result="hardAlpha"/>
            <feOffset dy="1"/>
            <feColorMatrix type="matrix" values="0 0 0 0 0 0 0 0 0 0 0 0 0 0 0 0 0 0 0.06 0"/>
            <feBlend mode="normal" in2="BackgroundImageFix" result="effect1_dropShadow_138_39"/>
            <feBlend mode="normal" in="SourceGraphic" in2="effect1_dropShadow_138_39" result="shape"/>
        </filter>
        <linearGradient id="paint0_linear_138_39" x1="0.977783" y1="0.977783" x2="0.977783" y2="5.86667" gradientUnits="userSpaceOnUse">
            <stop stop-color="white"/>
            <stop offset="1" stop-color="#F0F0F0"/>
        </linearGradient>
    </defs>
</svg>
