<svg width="20" height="21" viewBox="0 0 20 21" fill="none" xmlns="http://www.w3.org/2000/svg">
    <path fill-rule="evenodd" clip-rule="evenodd" d="M9.79742 10.5273C7.03724 10.5273 4.79742 8.28752 4.79742 5.52734C4.79742 2.76716 7.03724 0.527344 9.79742 0.527344C12.5576 0.527344 14.7974 2.76716 14.7974 5.52734C14.7974 8.28752 12.5576 10.5273 9.79742 10.5273Z" fill="#171717"/>
    <path fill-rule="evenodd" clip-rule="evenodd" d="M0.545797 14.6277C0.692567 14.2717 0.88826 13.9157 1.08395 13.5851C2.16027 11.9322 3.84812 10.8133 5.73167 10.5336C5.97629 10.5082 6.2209 10.559 6.4166 10.7116C7.39507 11.449 8.56923 11.8559 9.79231 11.8559C11.0154 11.8559 12.1896 11.449 13.168 10.7116C13.3637 10.559 13.6083 10.5082 13.8529 10.5336C15.7365 10.8133 17.4244 11.9068 18.5007 13.5851C18.7208 13.9157 18.8921 14.2717 19.0388 14.6277C19.1122 14.7803 19.0877 14.9583 19.0144 15.0855C18.8187 15.416 18.5985 15.772 18.3784 16.0772C18.0604 16.5349 17.6934 16.9672 17.302 17.3487C16.9596 17.7047 16.5927 18.0098 16.2013 18.315C14.3422 19.7645 12.1162 20.5273 9.79231 20.5273C7.46845 20.5273 5.24244 19.7645 3.38335 18.315C2.99196 18.0098 2.62504 17.6793 2.28258 17.3487C1.89119 16.9672 1.52426 16.5349 1.20626 16.0772C0.986108 15.772 0.765952 15.4415 0.570259 15.0855C0.496874 14.9329 0.496874 14.7803 0.545797 14.6277Z" fill="#171717"/>
</svg>
